<svg
  xmlns="http://www.w3.org/2000/svg"
  viewBox="0 0 200 220"
  width="200"
  height="220"
  role="img"
  aria-label="Companion mascot"
>
  <title>Companion mascot</title>

  <!-- Shadow beneath body -->
  <ellipse cx="100" cy="208" rx="38" ry="8" fill="#1a1a2e" opacity="0.35" />

  <!-- Body — rounded blob, blue-grey -->
  <rect
    x="32"
    y="40"
    width="136"
    height="148"
    rx="52"
    ry="52"
    fill="#7fb3d0"
  />

  <!-- Body highlight — subtle sheen top-left -->
  <ellipse
    cx="72"
    cy="72"
    rx="28"
    ry="18"
    fill="#b0d4e8"
    opacity="0.35"
    transform="rotate(-20 72 72)"
  />

  <!-- Body shadow — subtle darkening bottom-right -->
  <ellipse
    cx="128"
    cy="158"
    rx="32"
    ry="22"
    fill="#5a9abf"
    opacity="0.30"
    transform="rotate(-10 128 158)"
  />

  <!-- Left eye white -->
  <ellipse cx="76" cy="102" rx="16" ry="18" fill="#f0f0f2" />
  <!-- Right eye white -->
  <ellipse cx="124" cy="102" rx="16" ry="18" fill="#f0f0f2" />

  <!-- Left pupil -->
  <circle cx="79" cy="105" r="9" fill="#1a1a2e" />
  <!-- Right pupil -->
  <circle cx="127" cy="105" r="9" fill="#1a1a2e" />

  <!-- Left eye shine -->
  <circle cx="82" cy="100" r="3" fill="#ffffff" opacity="0.85" />
  <!-- Right eye shine -->
  <circle cx="130" cy="100" r="3" fill="#ffffff" opacity="0.85" />

  <!-- Smile — gentle upward arc -->
  <path
    d="M 82 130 Q 100 148 118 130"
    stroke="#1a1a2e"
    stroke-width="3"
    stroke-linecap="round"
    fill="none"
    opacity="0.65"
  />

  <!-- Left arm — small rounded nub -->
  <ellipse
    cx="30"
    cy="145"
    rx="14"
    ry="22"
    rx="14"
    fill="#6aa8c8"
    transform="rotate(12 30 145)"
  />

  <!-- Right arm -->
  <ellipse
    cx="170"
    cy="145"
    rx="14"
    ry="22"
    fill="#6aa8c8"
    transform="rotate(-12 170 145)"
  />

  <!-- Left foot -->
  <ellipse cx="78" cy="196" rx="20" ry="10" fill="#6aa8c8" />
  <!-- Right foot -->
  <ellipse cx="122" cy="196" rx="20" ry="10" fill="#6aa8c8" />

  <!--
    Blink animation — eyelid overlay scales from 0 to 1 on Y-axis
    Keyframe: 0%,90%,100% → scaleY(0)  |  95% → scaleY(1)
    Origin anchored to top of eye region.
  -->
  <g style="transform-origin: 76px 90px">
    <ellipse cx="76" cy="102" rx="17" ry="19" fill="#7fb3d0">
      <animateTransform
        attributeName="transform"
        type="scale"
        values="1 0;1 0;1 0;1 0;1 0;1 0;1 0;1 0;1 0;1 1;1 0"
        keyTimes="0;0.1;0.2;0.3;0.4;0.5;0.6;0.7;0.8;0.9;1"
        dur="4s"
        repeatCount="indefinite"
        additive="sum"
      />
    </ellipse>
  </g>
  <g style="transform-origin: 124px 90px">
    <ellipse cx="124" cy="102" rx="17" ry="19" fill="#7fb3d0">
      <animateTransform
        attributeName="transform"
        type="scale"
        values="1 0;1 0;1 0;1 0;1 0;1 0;1 0;1 0;1 0;1 1;1 0"
        keyTimes="0;0.1;0.2;0.3;0.4;0.5;0.6;0.7;0.8;0.9;1"
        dur="4s"
        repeatCount="indefinite"
        additive="sum"
      />
    </ellipse>
  </g>
</svg>
